<svg id="Layer_1" data-name="Layer 1" xmlns="http://www.w3.org/2000/svg" viewBox="0 0 86.85 152"><defs><style>.cls-1{fill:#292b2c;}.cls-2{fill:#b5b5b5;}</style></defs><title>DropHook</title><path class="cls-1" d="M86.85,65a5.4,5.4,0,0,1-1.61,3.82l-38,38a5.33,5.33,0,0,1-7.63,0l-38-38A5.4,5.4,0,0,1,0,65a5.47,5.47,0,0,1,5.43-5.43h76A5.47,5.47,0,0,1,86.85,65Z"/><path class="cls-2" d="M53.27,69V61.84H50.08V69a3,3,0,0,0,0,5.18v16a7.38,7.38,0,0,1-14.76,0v-4l2.6.87-2.6-5.72-3.19-6.55v15.4a10.57,10.57,0,1,0,21.14,0v-16a3,3,0,0,0,0-5.18Zm-1.6,4.19a1.6,1.6,0,1,1,1.6-1.6A1.6,1.6,0,0,1,51.68,73.17Z"/></svg>